<?xml version="1.0" standalone="no"?>
<!DOCTYPE svg PUBLIC "-//W3C//DTD SVG 20010904//EN"
 "http://www.w3.org/TR/2001/REC-SVG-20010904/DTD/svg10.dtd">
<svg version="1.0" xmlns="http://www.w3.org/2000/svg"
 width="700.000000pt" height="700.000000pt" viewBox="0 0 700.000000 700.000000"
 preserveAspectRatio="xMidYMid meet">
<metadata>
Created by potrace 1.14, written by Peter Selinger 2001-2017
</metadata>
<g transform="translate(0.000000,700.000000) scale(0.100000,-0.100000)"
fill="#000000" stroke="none">
<path d="M2560 5664 c-14 -2 -59 -9 -100 -15 -396 -58 -751 -371 -864 -762
-37 -128 -59 -288 -51 -377 26 -300 143 -558 348 -768 88 -90 203 -167 457
-307 107 -59 281 -155 385 -213 173 -95 215 -123 215 -142 0 -4 -145 -10 -322
-13 -354 -7 -417 -15 -539 -67 -275 -117 -464 -345 -526 -635 -18 -85 -12
-263 12 -375 70 -319 352 -584 685 -644 110 -19 1361 -31 1900 -18 343 9 371
11 462 35 497 131 828 557 828 1069 0 297 -129 606 -345 824 -111 113 -188
161 -847 524 -175 97 -210 122 -191 141 4 4 157 9 338 11 l330 4 94 32 c52 18
134 53 182 78 316 163 505 585 421 936 -42 171 -103 287 -216 406 -123 129
-256 208 -428 254 -83 22 -83 22 -1143 24 -583 1 -1071 0 -1085 -2z m2174
-274 c112 -29 190 -73 276 -160 127 -127 179 -240 187 -400 6 -115 -12 -201
-64 -309 -51 -107 -159 -213 -273 -270 -142 -70 -153 -71 -790 -71 -311 0
-583 -5 -604 -10 -22 -5 -51 -20 -65 -35 l-26 -25 -3 -463 c-1 -254 -6 -465
-11 -470 -7 -7 -814 432 -1057 575 -192 114 -318 243 -403 412 -170 342 -119
710 137 978 91 95 193 165 299 206 161 62 118 60 1269 61 1015 1 1053 0 1128
-19z m-887 -1673 c103 -57 262 -144 353 -194 316 -173 515 -286 583 -331 186
-122 316 -305 383 -537 26 -89 29 -115 29 -235 -1 -129 -2 -140 -38 -245 -103
-298 -326 -498 -642 -571 -75 -18 -140 -19 -1130 -19 -1176 0 -1101 -4 -1250
73 -102 54 -222 174 -268 272 -85 178 -88 356 -7 529 70 149 215 278 360 321
112 33 243 40 787 41 290 1 539 4 552 8 13 3 34 19 45 34 20 28 21 40 24 480
1 249 4 458 7 465 2 6 9 12 14 12 6 0 95 -47 198 -103z"/>
</g>
</svg>
